# xmcd
#
# Track frame offsets: 
#        150
#        11058
#        20573
#        32220
#        42940
#        54390
#        67558
#        80763
#        92228
#        105163
#        116810
#        128868
#
# Disc length: 1868 seconds
#
# Revision: 2
# Processed by: cddbd v1.5.2PL0 Copyright (c) Steve Scherf et al.
# Submitted via: ExactAudioCopy v1.0b1
#
DISCID=95074a0c
DTITLE=Martha and The Vandellas - Come and Get These Memories
DYEAR=1963
DGENRE=R&B
TTITLE0=Come and Get These Memories (mono)
TTITLE1=Can't Get Used To Losing You (mono)
TTITLE2=Moments (To Remember) (mono)
TTITLE3=This Is When I Need You Most (mono)
TTITLE4=A Love Like Yours (Don't Come Knockin' Everyday) (mono)
TTITLE5=Tears On My Pillow (mono)
TTITLE6=To Think You Would Hurt Me (mono)
TTITLE7=There He Is (At My Door) (mono)
TTITLE8=I'll Have To Let Him Go (mono)
TTITLE9=Give Him Up (mono)
TTITLE10=Jealous Lover (mono)
TTITLE11=Old Love (Let's Try It Again) (mono)
EXTD=
EXTT0=
EXTT1=
EXTT2=
EXTT3=
EXTT4=
EXTT5=
EXTT6=
EXTT7=
EXTT8=
EXTT9=
EXTT10=
EXTT11=
PLAYORDER=
